<svg xmlns="http://www.w3.org/2000/svg" viewBox="0 0 64 64" role="img" aria-label="Baydar mark">
  <circle cx="32" cy="32" r="30" fill="#526030"/>
  <rect x="31" y="14" width="2" height="37" rx="1" fill="#f4f6ef"/>
  <ellipse cx="27" cy="19" rx="2.6" ry="4.6" transform="rotate(-28 27 19)" fill="#f4f6ef"/>
  <ellipse cx="37" cy="19" rx="2.6" ry="4.6" transform="rotate(28 37 19)" fill="#f4f6ef"/>
  <ellipse cx="26" cy="27" rx="2.8" ry="4.8" transform="rotate(-28 26 27)" fill="#f4f6ef"/>
  <ellipse cx="38" cy="27" rx="2.8" ry="4.8" transform="rotate(28 38 27)" fill="#f4f6ef"/>
  <ellipse cx="25" cy="35" rx="2.8" ry="4.8" transform="rotate(-28 25 35)" fill="#f4f6ef"/>
  <ellipse cx="39" cy="35" rx="2.8" ry="4.8" transform="rotate(28 39 35)" fill="#f4f6ef"/>
  <ellipse cx="24" cy="43" rx="2.8" ry="4.8" transform="rotate(-28 24 43)" fill="#f4f6ef"/>
  <ellipse cx="40" cy="43" rx="2.8" ry="4.8" transform="rotate(28 40 43)" fill="#f4f6ef"/>
</svg>
